<svg width="100" height="100" viewBox="0 0 100 100" fill="none" xmlns="http://www.w3.org/2000/svg">
    <path d="M90.5 45.8C85.1 43.5 73.5 40.1 61.8 39.2C57.9 24.5 48.5 12.8 36.2 5.5C24.5 -1.5 10.5 -0.5 -2.5 3.5C1.5 11.5 3.5 20.5 3.2 29.5C2.8 37.5 0.2 45.2 -4.2 51.8C-7.2 56.2 -10.8 59.8 -14.8 63.2L-19.2 66.8L-13.8 68.5C-1.2 72.8 8.5 82.2 12.8 95.2L14.2 99.8L18.2 97.2C27.2 90.8 38.2 87.8 49.2 88.2C59.5 88.5 69.5 91.5 78.5 96.8L84.8 100.5L85.8 92.8C87.2 82.8 91.8 73.2 99.2 65.8L102.5 62.5L97.8 61.2C96.2 60.5 94.5 57.5 93.2 53.2C92.5 50.8 91.5 48.2 90.5 45.8Z" fill="#bd93f9"/>
</svg>